<svg width="24" height="24" viewBox="0 0 24 24" fill="none" xmlns="http://www.w3.org/2000/svg">
<path d="M19 19V21H5V19M19 19C19 17.9391 18.5786 16.9217 17.8284 16.1716M19 19L16.5 17.5H8L5 19M19 19H5M17.8284 16.1716C17.0783 15.4214 16.0609 15 15 15H9C7.93913 15 6.92172 15.4214 6.17157 16.1716M17.8284 16.1716H6.17157M6.17157 16.1716C5.42143 16.9217 5 17.9391 5 19M16 7C16 9.20914 14.2091 11 12 11M16 7C16 4.79086 14.2091 3 12 3M16 7L12 4.5L8 7M16 7L12 9.5L8 7M16 7L12 6.5L8 7M16 7L12 7.5L8 7M12 11C9.79086 11 8 9.20914 8 7M12 11L13.5 7L12 3M12 11L10.5 7L12 3M8 7C8 4.79086 9.79086 3 12 3" stroke="black" stroke-width="2" stroke-linecap="round" stroke-linejoin="round"/>
</svg>
