<svg width="24" height="24" viewBox="0 0 24 24" fill="none" xmlns="http://www.w3.org/2000/svg">
<path d="M5.78013 13.7995C5.63301 13.8001 5.48876 13.7524 5.36414 13.6618C5.23953 13.5713 5.13967 13.4417 5.07616 13.2882C5.01265 13.1346 4.98811 12.9633 5.00537 12.7942C5.02264 12.6251 5.08101 12.4651 5.1737 12.3329L12.8708 3.1553C12.9285 3.07818 13.0072 3.02606 13.0939 3.0075C13.1806 2.98895 13.2702 3.00505 13.3479 3.05318C13.4257 3.10131 13.487 3.1786 13.5218 3.27237C13.5566 3.36614 13.5628 3.4708 13.5394 3.5692L12.0466 8.98578C12.0026 9.12212 11.9878 9.26878 12.0036 9.41318C12.0193 9.55758 12.065 9.69541 12.1369 9.81485C12.2088 9.93429 12.3046 10.0318 12.4162 10.0989C12.5277 10.1661 12.6517 10.2009 12.7775 10.2005H18.2199C18.367 10.1999 18.5112 10.2476 18.6359 10.3382C18.7605 10.4287 18.8603 10.5583 18.9238 10.7118C18.9873 10.8654 19.0119 11.0367 18.9946 11.2058C18.9774 11.3749 18.919 11.5349 18.8263 11.6671L11.1292 20.8447C11.0715 20.9218 10.9928 20.9739 10.9061 20.9925C10.8194 21.0111 10.7298 20.9949 10.6521 20.9468C10.5743 20.8987 10.513 20.8214 10.4782 20.7276C10.4434 20.6339 10.4372 20.5292 10.4606 20.4308L11.9534 15.0142C11.9974 14.8779 12.0122 14.7312 11.9964 14.5868C11.9807 14.4424 11.935 14.3046 11.8631 14.1851C11.7912 14.0657 11.6954 13.9682 11.5838 13.9011C11.4723 13.8339 11.3483 13.7991 11.2225 13.7995H5.78013Z" fill="#CCFF00"/>
</svg>
